<svg xmlns="http://www.w3.org/2000/svg" viewBox="0 0 64 64"><defs><style>.cls-1{fill:#8bc4ff;}.cls-2{fill:#d1e7ff;}.cls-3{fill:#2e58ff;}</style></defs><title>book</title><g id="book"><rect class="cls-1" x="2" y="49" width="60" height="7"/><path class="cls-2" d="M32,15c0,42.33-.06,40.9,0,41a13.89,13.89,0,0,0-12.06-7H2V8H19.94A13.89,13.89,0,0,1,32,15Z"/><path class="cls-2" d="M62,8V49H44.06A13.89,13.89,0,0,0,32,56c0-40.52.06-41.1,0-41A13.89,13.89,0,0,1,44.06,8Z"/><path class="cls-3" d="M62,6H44.06A15.91,15.91,0,0,0,32,11.56,15.91,15.91,0,0,0,19.94,6H2A2,2,0,0,0,0,8V56a2,2,0,0,0,2,2H62a2,2,0,0,0,2-2V8A2,2,0,0,0,62,6ZM34,15.52a11.92,11.92,0,0,1,10-5.52H60V47H44.06A15.91,15.91,0,0,0,34,50.6C34,27.17,34,19,34,15.52ZM4,10H19.94A11.94,11.94,0,0,1,30,15.55c0,22.77,0,28.3,0,35a15.9,15.9,0,0,0-10-3.58H4ZM4,54V51H19.94a11.91,11.91,0,0,1,7.89,3Zm56,0H36.18a11.91,11.91,0,0,1,7.88-3H60Z"/><circle class="cls-3" cx="17" cy="40" r="2"/><path class="cls-3" d="M20.9,28.32c3-2.34,4.48-7,1.39-11.51a4.53,4.53,0,0,0-1.07-1.07C13.83,10.55,5.38,18,8.71,25.3a2,2,0,0,0,3.64-1.66c-1.6-3.53,2.4-7.55,6.58-4.62l.07.07c1.75,2.52.94,4.91-.55,6.07A8.65,8.65,0,0,0,15,32a2,2,0,0,0,4,0A4.68,4.68,0,0,1,20.9,28.32Z"/><path class="cls-3" d="M42,22H54a2,2,0,0,0,0-4H42a2,2,0,0,0,0,4Z"/><path class="cls-3" d="M42,31H54a2,2,0,0,0,0-4H42a2,2,0,0,0,0,4Z"/><path class="cls-3" d="M42,40H54a2,2,0,0,0,0-4H42a2,2,0,0,0,0,4Z"/></g></svg>